<svg width="114" height="11" viewBox="0 0 114 11" fill="none" xmlns="http://www.w3.org/2000/svg">
<g clip-path="url(#clip0)">
<path d="M133 5.5C126.667 10.1667 120.333 10.1667 114 5.5C107.667 0.833333 101.333 0.833333 95 5.5C88.6667 10.1667 82.3333 10.1667 76 5.5C69.6667 0.833333 63.3333 0.833333 57 5.5C50.6667 10.1667 44.3333 10.1667 38 5.5C31.6667 0.833333 25.3333 0.833333 19 5.5C12.6667 10.1667 6.33332 10.1667 -1.52588e-05 5.5C-6.33335 0.833333 -12.6667 0.833333 -19 5.5C-25.3333 10.1667 -31.6667 10.1667 -38 5.5" stroke="white" stroke-width="2"/>
</g>
<defs>
<clipPath id="clip0">
<rect width="114" height="11" fill="white"/>
</clipPath>
</defs>
</svg>
